# xmcd
#
# Track frame offsets:
#	150
#	43583
#	80668
#	114881
#	136804
#	200438
#	234737
#	260611
#
# Disc length: 3727 seconds
#
# Revision: 0
# Processed by: cddbd v1.5.2PL0 Copyright (c) Steve Scherf et al.
# Submitted via: audiograbber 1.83.01
#
DISCID=680e8d08
DTITLE=Grateful Dead - 93-03-11 Rosemont Horizon, Rosemont IL
DYEAR=1900
DGENRE=
TTITLE0=Iko Iko
TTITLE1=Wave To The Wind
TTITLE2=Truckin'
TTITLE3=Spoonful
TTITLE4=He's Gone
TTITLE5=Drums
TTITLE6=Space
TTITLE7=Space
EXTD=
EXTT0=
EXTT1=
EXTT2=
EXTT3=
EXTT4=
EXTT5=
EXTT6=
EXTT7=
PLAYORDER=
